Coordinates
version=1
nRows=12
nColumns=33
inDegrees=yes

Units are S.I. units (second, meters, Newtons, ...)
Angles are in degrees.

endheader
time	ground_thorax_rot_x	ground_thorax_rot_y	ground_thorax_rot_z	ground_thorax_tx	ground_thorax_ty	ground_thorax_tz	clav_prot_r	clav_elev_r	scapula_abduction_r	scapula_elevation_r	scapula_upward_rot_r	scapula_winging_r	shoulder_elv_r	plane_of_elev_r	axial_rot_r	elbow_flexion_r	pro_sup_r	wrist_flex_r	wrist_dev_r	clav_prot_l	clav_elev_l	scapula_abduction_l	scapula_elevation_l	scapula_upward_rot_l	scapula_winging_l	shoulder_elv_l	plane_of_elev_l	axial_rot_l	elbow_flexion_l	pro_sup_l	wrist_flex_l	wrist_dev_l
      5.28000000	     35.23626434	     14.89600086	     25.80072072	   -156.70859577	    821.83331716	     10.13833942	     15.81546226	     38.48893673	     40.30266929	     45.00000000	    -45.00000000	  -4407.76245266	  -1725.82280972	     34.65590477	     29.37872996	    735.49965747	     52.23102253	     18.45767071	      3.73683843	     10.28365256	    -45.00000000	    -40.48688010	     45.00000000	    -35.27942129	   1178.06589050	  -1893.45174154	    137.41556114	    178.68776593	    367.92665474	     18.57510536	     10.08027095	    -21.38723169
      5.29000000	     35.16599467	     15.02057764	     25.99460335	   -162.10714537	    823.58228949	     10.33766007	     15.80766840	     38.11457278	     40.00265963	     45.00000000	    -45.00000000	  -4407.48781734	  -1725.42376793	     33.88907481	     27.23633056	    736.01560075	     58.19807279	     18.02686017	      3.39897031	     10.36746695	    -45.00000000	    -40.26900435	     45.00000000	    -37.40818531	   1178.55057065	  -1892.99705684	    137.02380125	    178.63598837	    368.05902413	     17.78658835	      9.73714711	    -21.53145356
      5.30000000	     35.56694764	     14.29128244	     24.88389347	   -167.48128927	    825.21554278	     10.54777337	     15.20391359	     38.17881444	     40.16206144	     45.00000000	    -45.00000000	  -4408.10463804	  -1726.41881531	     34.06401726	     38.83076863	    743.02916670	    129.57571405	     13.52359636	      4.12753869	     10.18350890	    -45.00000000	    -40.15496092	     45.00000000	    -36.14271325	   1178.95353591	  -1893.27234744	    137.53641844	    176.11934308	    368.30073745	     13.90552350	      9.31162170	    -21.01626870
      5.31000000	     35.89407030	     13.66686018	     23.84560862	   -172.79975385	    826.73613967	     10.77034696	     15.48022738	     38.17608736	     40.40178461	     45.00000000	    -45.00000000	  -4408.57576054	  -1726.46378875	     34.32268050	     41.72736358	    743.03967527	    129.65308992	     13.25006066	      4.00895304	     10.33646926	    -45.00000000	    -40.06548534	     45.00000000	    -35.89113359	   1178.89355963	  -1892.99909991	    137.37962132	    177.78730522	    367.98163722	     14.29994728	     10.31948004	    -21.23300466
      5.32000000	     35.88041602	     13.69093789	     23.65062487	   -178.05620493	    828.15092830	     11.00622785	     15.46435921	     38.01260048	     39.77462589	     45.00000000	    -45.00000000	  -4408.19968882	  -1725.92565635	     33.66651613	     39.99987638	    743.30768560	    131.00195674	     13.47460312	      3.86195961	     10.35242830	    -45.00000000	    -39.84843851	     45.00000000	    -37.75518086	   1179.05221079	  -1892.50658685	    137.09312109	    178.18110385	    368.14565155	     14.51003525	      9.75881362	    -21.42749933
      5.33000000	     36.02359253	     13.48176445	     23.17363791	   -183.23185361	    829.46318335	     11.25583577	     15.50897263	     38.02709673	     39.68193571	     45.00000000	    -45.00000000	  -4408.44191070	  -1725.91915826	     33.48900897	     40.86311865	    743.35290682	    131.22344555	     13.35175945	      4.08340144	     10.31440529	    -45.00000000	    -39.78847938	     45.00000000	    -38.03084797	   1179.38061963	  -1892.45466972	    137.10418839	    178.01410141	    368.14494391	     14.54288215	      9.74287296	    -21.51862129
      5.34000000	     36.16824157	     13.21805485	     22.67433801	   -188.31048409	    830.67784930	     11.51571772	     15.48648263	     38.01419269	     39.68697583	     45.00000000	    -45.00000000	  -4408.69062159	  -1726.01257462	     33.29670143	     41.73106425	    743.38484608	    131.30266524	     13.30106997	      4.22435584	     10.29002172	    -45.00000000	    -39.67170511	     45.00000000	    -38.35733383	   1179.68621869	  -1892.38916360	    137.14632967	    177.93976812	    368.21227709	     14.45906859	      9.69040754	    -21.58679016
      5.35000000	     36.34209749	     12.88464632	     22.06629648	   -193.27830469	    831.79838153	     11.78159739	     15.33913520	     37.97909888	     39.33282576	     45.00000000	    -45.00000000	  -4408.69722289	  -1725.87474103	     33.29439552	     42.08470297	    743.29541100	    131.60842366	     13.53042735	      4.10406173	     10.37246777	    -45.00000000	    -39.38295770	     45.00000000	    -39.24632596	   1179.75696015	  -1892.19880054	    137.09244843	    178.22192363	    368.14605088	     14.25329702	      9.45707970	    -21.58337481
      5.36000000	     36.46447601	     12.70662572	     21.60805918	   -198.12579677	    832.82724659	     12.04725903	     15.34222078	     37.91836574	     39.25628821	     45.00000000	    -45.00000000	  -4408.95481213	  -1725.95755761	     33.13738632	     43.01068518	    743.32747593	    131.77089301	     13.46911330	      4.23212045	     10.35021756	    -45.00000000	    -39.25976212	     45.00000000	    -39.63123014	   1180.03851375	  -1892.17314476	    137.12856795	    178.02356101	    368.16841881	     14.08703803	      9.43954684	    -21.60607152
      5.37000000	     36.57053610	     12.50437631	     21.18075337	   -202.83512691	    833.76389374	     12.30468241	     15.28279969	     37.85822671	     39.14821157	     45.00000000	    -45.00000000	  -4409.12664366	  -1726.07302764	     32.99145846	     44.07713156	    743.32578396	    131.93574002	     13.43786254	      4.33326945	     10.36949618	    -45.00000000	    -39.09475118	     45.00000000	    -40.18032897	   1180.32787278	  -1892.14418117	    137.15643232	    177.90543982	    368.18396512	     14.00274097	      9.37239172	    -21.62194210
      5.38000000	     36.71037465	     12.29812836	     20.67715613	   -207.39095418	    834.60729547	     12.54552923	     15.19255952	     37.86889449	     38.83306877	     45.00000000	    -45.00000000	  -4409.16354356	  -1725.98162571	     32.91322061	     44.74943161	    743.32354777	    132.32824759	     13.59446848	      4.23367596	     10.42709231	    -45.00000000	    -38.77590854	     45.00000000	    -41.17108577	   1180.34212696	  -1892.02958954	    137.10769956	    178.27601676	    368.07598865	     13.85776368	      9.17815909	    -21.57778905
      5.39000000	     36.82889678	     12.02122718	     20.17023514	   -211.77927272	    835.35386046	     12.76299851	     15.14813796	     37.70086482	     38.92850968	     45.00000000	    -45.00000000	  -4409.49871497	  -1726.36474244	     32.86643404	     46.10183805	    743.27117015	    132.35503573	     13.44687864	      4.45239334	     10.33003698	    -45.00000000	    -38.72848413	     45.00000000	    -41.03472737	   1180.88428835	  -1892.23610236	    137.16523469	    177.55275830	    368.10548717	     14.00538164	      9.31188565	    -21.64253369
